<?xml version="1.0" encoding="UTF-8"?>
<!DOCTYPE svg PUBLIC "-//W3C//DTD SVG 1.1//EN" "http://www.w3.org/Graphics/SVG/1.1/DTD/svg11.dtd">
<svg xmlns="http://www.w3.org/2000/svg" xmlns:xlink="http://www.w3.org/1999/xlink" version="1.1" width="176px" height="176px" viewBox="-0.5 -0.5 176 176"><defs><linearGradient x1="0%" y1="100%" x2="0%" y2="0%" id="mx-gradient-3399ff-1-2670ba-1-s-0"><stop offset="0%" style="stop-color: rgb(38, 112, 186); stop-opacity: 1;"/><stop offset="100%" style="stop-color: rgb(51, 153, 255); stop-opacity: 1;"/></linearGradient></defs><g><ellipse cx="88" cy="88" rx="85" ry="85" fill="#297acc" stroke="none" pointer-events="none"/><ellipse cx="88" cy="88" rx="72.62" ry="72.62" fill="#000000" stroke="#000000" stroke-width="6" pointer-events="none" transform="translate(2,3)" opacity="0.25"/><ellipse cx="88" cy="88" rx="72.62" ry="72.62" fill="rgb(255, 255, 255)" stroke="#3399ff" stroke-width="6" pointer-events="none"/><path d="M 50.39 81.55 L 61.52 69.4 Q 68.28 62.03 75.03 69.4 L 97.3 93.69 Q 104.06 101.06 97.3 108.44 L 75.03 132.72 Q 68.28 140.1 61.52 132.72 L 39.26 108.44 Q 32.5 101.06 39.26 93.69 Z" fill="rgb(255, 255, 255)" stroke="#3399ff" stroke-width="4" stroke-miterlimit="10" transform="rotate(45,68.28,101.06)" pointer-events="none"/><path d="M 89.59 55.41 L 100.72 43.27 Q 107.48 35.9 114.24 43.27 L 136.5 67.56 Q 143.26 74.93 136.5 82.3 L 114.24 106.59 Q 107.48 113.96 100.72 106.59 L 78.46 82.3 Q 71.7 74.93 78.46 67.56 Z" fill="rgb(255, 255, 255)" stroke="#3399ff" stroke-width="4" stroke-miterlimit="10" transform="rotate(45,107.48,74.93)" pointer-events="none"/><path d="M 69.99 68.48 L 81.12 56.34 Q 87.88 48.96 94.64 56.34 L 116.9 80.62 Q 123.66 88 116.9 95.37 L 94.64 119.66 Q 87.88 127.03 81.12 119.66 L 58.86 95.37 Q 52.1 88 58.86 80.62 Z" fill="#000000" stroke="none" transform="translate(2,3)rotate(45,87.88,88)" pointer-events="none" opacity="0.25"/><path d="M 69.99 68.48 L 81.12 56.34 Q 87.88 48.96 94.64 56.34 L 116.9 80.62 Q 123.66 88 116.9 95.37 L 94.64 119.66 Q 87.88 127.03 81.12 119.66 L 58.86 95.37 Q 52.1 88 58.86 80.62 Z" fill="url(#mx-gradient-3399ff-1-2670ba-1-s-0)" stroke="none" transform="rotate(45,87.88,88)" pointer-events="none"/></g></svg>